<mxfile host="Electron" modified="2024-04-10T15:39:07.261Z" agent="Mozilla/5.0 (Windows NT 10.0; Win64; x64) AppleWebKit/537.36 (KHTML, like Gecko) draw.io/22.1.11 Chrome/114.0.5735.289 Electron/25.9.8 Safari/537.36" etag="v4SZvvC8k0d8g78EnJ7k" version="22.1.11" type="device">
  <diagram name="Страница — 1" id="Du_uJJ3Zpm-yfsuUmZFD">
    <mxGraphModel dx="1366" dy="811" grid="1" gridSize="10" guides="1" tooltips="1" connect="1" arrows="1" fold="1" page="1" pageScale="1" pageWidth="827" pageHeight="1169" math="0" shadow="0">
      <root>
        <mxCell id="0" />
        <mxCell id="1" parent="0" />
        <mxCell id="c8WZ3sS0EcvGKupXQTkW-1" value="Input" style="rounded=0;whiteSpace=wrap;html=1;" parent="1" vertex="1">
          <mxGeometry x="190" y="380" width="60" height="30" as="geometry" />
        </mxCell>
        <mxCell id="c8WZ3sS0EcvGKupXQTkW-2" value="Graphics" style="rounded=0;whiteSpace=wrap;html=1;" parent="1" vertex="1">
          <mxGeometry x="320" y="410" width="60" height="30" as="geometry" />
        </mxCell>
        <mxCell id="c8WZ3sS0EcvGKupXQTkW-3" value="Audio" style="rounded=0;whiteSpace=wrap;html=1;" parent="1" vertex="1">
          <mxGeometry x="450" y="380" width="60" height="30" as="geometry" />
        </mxCell>
        <mxCell id="c8WZ3sS0EcvGKupXQTkW-4" value="Core" style="rounded=0;whiteSpace=wrap;html=1;" parent="1" vertex="1">
          <mxGeometry x="320" y="320" width="60" height="30" as="geometry" />
        </mxCell>
        <mxCell id="c8WZ3sS0EcvGKupXQTkW-5" value="Elaria&lt;br&gt;engine" style="rounded=0;whiteSpace=wrap;html=1;" parent="1" vertex="1">
          <mxGeometry x="320" y="230" width="60" height="40" as="geometry" />
        </mxCell>
        <mxCell id="c8WZ3sS0EcvGKupXQTkW-6" value="" style="endArrow=none;html=1;rounded=0;" parent="1" source="c8WZ3sS0EcvGKupXQTkW-4" target="c8WZ3sS0EcvGKupXQTkW-5" edge="1">
          <mxGeometry width="50" height="50" relative="1" as="geometry">
            <mxPoint x="150" y="320" as="sourcePoint" />
            <mxPoint x="200" y="270" as="targetPoint" />
          </mxGeometry>
        </mxCell>
        <mxCell id="c8WZ3sS0EcvGKupXQTkW-7" value="Use" style="endArrow=open;endSize=12;dashed=1;html=1;rounded=0;" parent="1" source="c8WZ3sS0EcvGKupXQTkW-4" target="c8WZ3sS0EcvGKupXQTkW-1" edge="1">
          <mxGeometry width="160" relative="1" as="geometry">
            <mxPoint x="220" y="440" as="sourcePoint" />
            <mxPoint x="380" y="440" as="targetPoint" />
          </mxGeometry>
        </mxCell>
        <mxCell id="c8WZ3sS0EcvGKupXQTkW-8" value="Use" style="endArrow=open;endSize=12;dashed=1;html=1;rounded=0;" parent="1" source="c8WZ3sS0EcvGKupXQTkW-4" target="c8WZ3sS0EcvGKupXQTkW-2" edge="1">
          <mxGeometry width="160" relative="1" as="geometry">
            <mxPoint x="330" y="357" as="sourcePoint" />
            <mxPoint x="240" y="393" as="targetPoint" />
          </mxGeometry>
        </mxCell>
        <mxCell id="c8WZ3sS0EcvGKupXQTkW-9" value="Use" style="endArrow=open;endSize=12;dashed=1;html=1;rounded=0;" parent="1" source="c8WZ3sS0EcvGKupXQTkW-4" target="c8WZ3sS0EcvGKupXQTkW-3" edge="1">
          <mxGeometry width="160" relative="1" as="geometry">
            <mxPoint x="360" y="360" as="sourcePoint" />
            <mxPoint x="360" y="410" as="targetPoint" />
          </mxGeometry>
        </mxCell>
        <mxCell id="c8WZ3sS0EcvGKupXQTkW-11" value="Core" style="rounded=0;whiteSpace=wrap;html=1;" parent="1" vertex="1">
          <mxGeometry x="610" y="235" width="60" height="30" as="geometry" />
        </mxCell>
        <mxCell id="c8WZ3sS0EcvGKupXQTkW-12" value="SceneManager" style="rounded=0;whiteSpace=wrap;html=1;" parent="1" vertex="1">
          <mxGeometry x="510" y="310" width="90" height="30" as="geometry" />
        </mxCell>
        <mxCell id="c8WZ3sS0EcvGKupXQTkW-15" value="" style="endArrow=open;endFill=1;endSize=12;html=1;rounded=0;" parent="1" source="c8WZ3sS0EcvGKupXQTkW-11" target="c8WZ3sS0EcvGKupXQTkW-12" edge="1">
          <mxGeometry width="160" relative="1" as="geometry">
            <mxPoint x="550" y="360" as="sourcePoint" />
            <mxPoint x="710" y="360" as="targetPoint" />
          </mxGeometry>
        </mxCell>
        <mxCell id="c8WZ3sS0EcvGKupXQTkW-16" value="SceneManager" style="rounded=0;whiteSpace=wrap;html=1;" parent="1" vertex="1">
          <mxGeometry x="610" y="310" width="90" height="30" as="geometry" />
        </mxCell>
        <mxCell id="7PLjPzZpHCM-PqKwoNSJ-8" style="edgeStyle=orthogonalEdgeStyle;rounded=0;orthogonalLoop=1;jettySize=auto;html=1;" edge="1" parent="1" source="7PLjPzZpHCM-PqKwoNSJ-1" target="7PLjPzZpHCM-PqKwoNSJ-2">
          <mxGeometry relative="1" as="geometry" />
        </mxCell>
        <mxCell id="7PLjPzZpHCM-PqKwoNSJ-1" value="awake" style="rounded=0;whiteSpace=wrap;html=1;" vertex="1" parent="1">
          <mxGeometry x="560" y="490" width="70" height="30" as="geometry" />
        </mxCell>
        <mxCell id="7PLjPzZpHCM-PqKwoNSJ-9" style="edgeStyle=orthogonalEdgeStyle;rounded=0;orthogonalLoop=1;jettySize=auto;html=1;" edge="1" parent="1" source="7PLjPzZpHCM-PqKwoNSJ-2" target="7PLjPzZpHCM-PqKwoNSJ-4">
          <mxGeometry relative="1" as="geometry" />
        </mxCell>
        <mxCell id="7PLjPzZpHCM-PqKwoNSJ-2" value="onEnable" style="rounded=0;whiteSpace=wrap;html=1;" vertex="1" parent="1">
          <mxGeometry x="560" y="542" width="70" height="30" as="geometry" />
        </mxCell>
        <mxCell id="7PLjPzZpHCM-PqKwoNSJ-13" style="edgeStyle=orthogonalEdgeStyle;rounded=0;orthogonalLoop=1;jettySize=auto;html=1;" edge="1" parent="1" source="7PLjPzZpHCM-PqKwoNSJ-3" target="7PLjPzZpHCM-PqKwoNSJ-7">
          <mxGeometry relative="1" as="geometry" />
        </mxCell>
        <mxCell id="7PLjPzZpHCM-PqKwoNSJ-18" value="GameObject destroyed" style="edgeLabel;html=1;align=center;verticalAlign=middle;resizable=0;points=[];" vertex="1" connectable="0" parent="7PLjPzZpHCM-PqKwoNSJ-13">
          <mxGeometry x="0.2569" y="-2" relative="1" as="geometry">
            <mxPoint x="2" y="-8" as="offset" />
          </mxGeometry>
        </mxCell>
        <mxCell id="7PLjPzZpHCM-PqKwoNSJ-3" value="onDisable" style="rounded=0;whiteSpace=wrap;html=1;" vertex="1" parent="1">
          <mxGeometry x="560" y="748" width="70" height="30" as="geometry" />
        </mxCell>
        <mxCell id="7PLjPzZpHCM-PqKwoNSJ-10" style="edgeStyle=orthogonalEdgeStyle;rounded=0;orthogonalLoop=1;jettySize=auto;html=1;" edge="1" parent="1" source="7PLjPzZpHCM-PqKwoNSJ-4" target="7PLjPzZpHCM-PqKwoNSJ-5">
          <mxGeometry relative="1" as="geometry" />
        </mxCell>
        <mxCell id="7PLjPzZpHCM-PqKwoNSJ-4" value="start" style="rounded=0;whiteSpace=wrap;html=1;" vertex="1" parent="1">
          <mxGeometry x="560" y="593" width="70" height="30" as="geometry" />
        </mxCell>
        <mxCell id="7PLjPzZpHCM-PqKwoNSJ-11" style="edgeStyle=orthogonalEdgeStyle;rounded=0;orthogonalLoop=1;jettySize=auto;html=1;" edge="1" parent="1" source="7PLjPzZpHCM-PqKwoNSJ-5" target="7PLjPzZpHCM-PqKwoNSJ-6">
          <mxGeometry relative="1" as="geometry" />
        </mxCell>
        <mxCell id="7PLjPzZpHCM-PqKwoNSJ-5" value="update" style="rounded=0;whiteSpace=wrap;html=1;" vertex="1" parent="1">
          <mxGeometry x="560" y="645" width="70" height="30" as="geometry" />
        </mxCell>
        <mxCell id="7PLjPzZpHCM-PqKwoNSJ-12" style="edgeStyle=orthogonalEdgeStyle;rounded=0;orthogonalLoop=1;jettySize=auto;html=1;" edge="1" parent="1" source="7PLjPzZpHCM-PqKwoNSJ-6" target="7PLjPzZpHCM-PqKwoNSJ-3">
          <mxGeometry relative="1" as="geometry" />
        </mxCell>
        <mxCell id="7PLjPzZpHCM-PqKwoNSJ-17" value="Game Loop" style="edgeStyle=elbowEdgeStyle;rounded=0;orthogonalLoop=1;jettySize=auto;html=1;elbow=horizontal;" edge="1" parent="1" source="7PLjPzZpHCM-PqKwoNSJ-6" target="7PLjPzZpHCM-PqKwoNSJ-5">
          <mxGeometry relative="1" as="geometry">
            <mxPoint x="700" y="712" as="targetPoint" />
            <Array as="points">
              <mxPoint x="670" y="690" />
            </Array>
          </mxGeometry>
        </mxCell>
        <mxCell id="7PLjPzZpHCM-PqKwoNSJ-6" value="render" style="rounded=0;whiteSpace=wrap;html=1;" vertex="1" parent="1">
          <mxGeometry x="560" y="697" width="70" height="30" as="geometry" />
        </mxCell>
        <mxCell id="7PLjPzZpHCM-PqKwoNSJ-7" value="onDestroy" style="rounded=0;whiteSpace=wrap;html=1;" vertex="1" parent="1">
          <mxGeometry x="560" y="820" width="70" height="30" as="geometry" />
        </mxCell>
        <mxCell id="7PLjPzZpHCM-PqKwoNSJ-22" style="edgeStyle=elbowEdgeStyle;rounded=0;orthogonalLoop=1;jettySize=auto;html=1;entryX=0;entryY=0.5;entryDx=0;entryDy=0;" edge="1" parent="1" source="7PLjPzZpHCM-PqKwoNSJ-24" target="7PLjPzZpHCM-PqKwoNSJ-29">
          <mxGeometry relative="1" as="geometry">
            <Array as="points">
              <mxPoint x="200" y="580" />
            </Array>
          </mxGeometry>
        </mxCell>
        <mxCell id="7PLjPzZpHCM-PqKwoNSJ-23" style="edgeStyle=elbowEdgeStyle;rounded=0;orthogonalLoop=1;jettySize=auto;html=1;entryX=0;entryY=0.5;entryDx=0;entryDy=0;" edge="1" parent="1" source="7PLjPzZpHCM-PqKwoNSJ-24" target="7PLjPzZpHCM-PqKwoNSJ-31">
          <mxGeometry relative="1" as="geometry">
            <Array as="points">
              <mxPoint x="200" y="603" />
            </Array>
          </mxGeometry>
        </mxCell>
        <mxCell id="7PLjPzZpHCM-PqKwoNSJ-24" value="Scene" style="rounded=0;whiteSpace=wrap;html=1;fillColor=#fff2cc;strokeColor=#d6b656;" vertex="1" parent="1">
          <mxGeometry x="190" y="540" width="100" height="30" as="geometry" />
        </mxCell>
        <mxCell id="7PLjPzZpHCM-PqKwoNSJ-27" style="edgeStyle=elbowEdgeStyle;rounded=0;orthogonalLoop=1;jettySize=auto;html=1;entryX=0;entryY=0.5;entryDx=0;entryDy=0;" edge="1" parent="1" source="7PLjPzZpHCM-PqKwoNSJ-29" target="7PLjPzZpHCM-PqKwoNSJ-32">
          <mxGeometry relative="1" as="geometry">
            <Array as="points">
              <mxPoint x="230" y="620" />
            </Array>
          </mxGeometry>
        </mxCell>
        <mxCell id="7PLjPzZpHCM-PqKwoNSJ-28" style="edgeStyle=elbowEdgeStyle;rounded=0;orthogonalLoop=1;jettySize=auto;html=1;entryX=0;entryY=0.5;entryDx=0;entryDy=0;" edge="1" parent="1" source="7PLjPzZpHCM-PqKwoNSJ-29" target="7PLjPzZpHCM-PqKwoNSJ-33">
          <mxGeometry relative="1" as="geometry">
            <Array as="points">
              <mxPoint x="230" y="650" />
            </Array>
          </mxGeometry>
        </mxCell>
        <mxCell id="7PLjPzZpHCM-PqKwoNSJ-29" value="GameObject1" style="rounded=0;whiteSpace=wrap;html=1;fillColor=#dae8fc;strokeColor=#6c8ebf;" vertex="1" parent="1">
          <mxGeometry x="220" y="580" width="100" height="30" as="geometry" />
        </mxCell>
        <mxCell id="7PLjPzZpHCM-PqKwoNSJ-30" style="edgeStyle=elbowEdgeStyle;rounded=0;orthogonalLoop=1;jettySize=auto;html=1;entryX=0;entryY=0.5;entryDx=0;entryDy=0;" edge="1" parent="1" source="7PLjPzZpHCM-PqKwoNSJ-31" target="7PLjPzZpHCM-PqKwoNSJ-34">
          <mxGeometry relative="1" as="geometry">
            <Array as="points">
              <mxPoint x="230" y="1030" />
            </Array>
          </mxGeometry>
        </mxCell>
        <mxCell id="7PLjPzZpHCM-PqKwoNSJ-31" value="GameObject2" style="rounded=0;whiteSpace=wrap;html=1;fillColor=#dae8fc;strokeColor=#6c8ebf;" vertex="1" parent="1">
          <mxGeometry x="220" y="980" width="100" height="30" as="geometry" />
        </mxCell>
        <mxCell id="7PLjPzZpHCM-PqKwoNSJ-32" value="Transform" style="rounded=0;whiteSpace=wrap;html=1;fillColor=#d5e8d4;strokeColor=#82b366;" vertex="1" parent="1">
          <mxGeometry x="250" y="620" width="100" height="30" as="geometry" />
        </mxCell>
        <mxCell id="7PLjPzZpHCM-PqKwoNSJ-33" value="Component1" style="rounded=0;whiteSpace=wrap;html=1;fillColor=#d5e8d4;strokeColor=#82b366;" vertex="1" parent="1">
          <mxGeometry x="250" y="900" width="100" height="30" as="geometry" />
        </mxCell>
        <mxCell id="7PLjPzZpHCM-PqKwoNSJ-34" value="Transform" style="rounded=0;whiteSpace=wrap;html=1;fillColor=#d5e8d4;strokeColor=#82b366;" vertex="1" parent="1">
          <mxGeometry x="250" y="1020" width="100" height="30" as="geometry" />
        </mxCell>
        <mxCell id="7PLjPzZpHCM-PqKwoNSJ-42" value="Component2" style="rounded=0;whiteSpace=wrap;html=1;fillColor=#d5e8d4;strokeColor=#82b366;" vertex="1" parent="1">
          <mxGeometry x="250" y="940" width="100" height="30" as="geometry" />
        </mxCell>
        <mxCell id="7PLjPzZpHCM-PqKwoNSJ-43" style="edgeStyle=elbowEdgeStyle;rounded=0;orthogonalLoop=1;jettySize=auto;html=1;" edge="1" parent="1" source="7PLjPzZpHCM-PqKwoNSJ-29" target="7PLjPzZpHCM-PqKwoNSJ-42">
          <mxGeometry relative="1" as="geometry">
            <Array as="points">
              <mxPoint x="230" y="715" />
            </Array>
            <mxPoint x="240" y="625" as="sourcePoint" />
            <mxPoint x="260" y="690" as="targetPoint" />
          </mxGeometry>
        </mxCell>
        <mxCell id="7PLjPzZpHCM-PqKwoNSJ-44" style="edgeStyle=elbowEdgeStyle;rounded=0;orthogonalLoop=1;jettySize=auto;html=1;entryX=0;entryY=0.5;entryDx=0;entryDy=0;" edge="1" source="7PLjPzZpHCM-PqKwoNSJ-45" target="7PLjPzZpHCM-PqKwoNSJ-46" parent="1">
          <mxGeometry relative="1" as="geometry">
            <Array as="points">
              <mxPoint x="290" y="715" />
            </Array>
          </mxGeometry>
        </mxCell>
        <mxCell id="7PLjPzZpHCM-PqKwoNSJ-45" value="ChildObject1" style="rounded=0;whiteSpace=wrap;html=1;fillColor=#dae8fc;strokeColor=#6c8ebf;" vertex="1" parent="1">
          <mxGeometry x="280" y="660" width="100" height="30" as="geometry" />
        </mxCell>
        <mxCell id="7PLjPzZpHCM-PqKwoNSJ-46" value="Transform" style="rounded=0;whiteSpace=wrap;html=1;fillColor=#d5e8d4;strokeColor=#82b366;" vertex="1" parent="1">
          <mxGeometry x="310" y="700" width="100" height="30" as="geometry" />
        </mxCell>
        <mxCell id="7PLjPzZpHCM-PqKwoNSJ-47" style="edgeStyle=elbowEdgeStyle;rounded=0;orthogonalLoop=1;jettySize=auto;html=1;" edge="1" parent="1" source="7PLjPzZpHCM-PqKwoNSJ-32" target="7PLjPzZpHCM-PqKwoNSJ-45">
          <mxGeometry relative="1" as="geometry">
            <Array as="points">
              <mxPoint x="260" y="675" />
            </Array>
            <mxPoint x="250" y="665" as="sourcePoint" />
            <mxPoint x="270" y="690" as="targetPoint" />
          </mxGeometry>
        </mxCell>
        <mxCell id="7PLjPzZpHCM-PqKwoNSJ-48" value="..." style="rounded=0;whiteSpace=wrap;html=1;fillColor=#d5e8d4;strokeColor=#82b366;" vertex="1" parent="1">
          <mxGeometry x="310" y="740" width="100" height="30" as="geometry" />
        </mxCell>
        <mxCell id="7PLjPzZpHCM-PqKwoNSJ-49" style="edgeStyle=elbowEdgeStyle;rounded=0;orthogonalLoop=1;jettySize=auto;html=1;" edge="1" parent="1" source="7PLjPzZpHCM-PqKwoNSJ-45" target="7PLjPzZpHCM-PqKwoNSJ-48">
          <mxGeometry relative="1" as="geometry">
            <Array as="points">
              <mxPoint x="290" y="755" />
            </Array>
            <mxPoint x="300" y="700" as="sourcePoint" />
            <mxPoint x="320" y="725" as="targetPoint" />
          </mxGeometry>
        </mxCell>
        <mxCell id="7PLjPzZpHCM-PqKwoNSJ-50" style="edgeStyle=elbowEdgeStyle;rounded=0;orthogonalLoop=1;jettySize=auto;html=1;entryX=0;entryY=0.5;entryDx=0;entryDy=0;" edge="1" source="7PLjPzZpHCM-PqKwoNSJ-51" target="7PLjPzZpHCM-PqKwoNSJ-52" parent="1">
          <mxGeometry relative="1" as="geometry">
            <Array as="points">
              <mxPoint x="290" y="835" />
            </Array>
          </mxGeometry>
        </mxCell>
        <mxCell id="7PLjPzZpHCM-PqKwoNSJ-51" value="ChildObject1" style="rounded=0;whiteSpace=wrap;html=1;fillColor=#dae8fc;strokeColor=#6c8ebf;" vertex="1" parent="1">
          <mxGeometry x="280" y="780" width="100" height="30" as="geometry" />
        </mxCell>
        <mxCell id="7PLjPzZpHCM-PqKwoNSJ-52" value="Transform" style="rounded=0;whiteSpace=wrap;html=1;fillColor=#d5e8d4;strokeColor=#82b366;" vertex="1" parent="1">
          <mxGeometry x="310" y="820" width="100" height="30" as="geometry" />
        </mxCell>
        <mxCell id="7PLjPzZpHCM-PqKwoNSJ-53" value="..." style="rounded=0;whiteSpace=wrap;html=1;fillColor=#d5e8d4;strokeColor=#82b366;" vertex="1" parent="1">
          <mxGeometry x="310" y="860" width="100" height="30" as="geometry" />
        </mxCell>
        <mxCell id="7PLjPzZpHCM-PqKwoNSJ-54" style="edgeStyle=elbowEdgeStyle;rounded=0;orthogonalLoop=1;jettySize=auto;html=1;" edge="1" source="7PLjPzZpHCM-PqKwoNSJ-51" target="7PLjPzZpHCM-PqKwoNSJ-53" parent="1">
          <mxGeometry relative="1" as="geometry">
            <Array as="points">
              <mxPoint x="290" y="875" />
            </Array>
            <mxPoint x="300" y="820" as="sourcePoint" />
            <mxPoint x="320" y="845" as="targetPoint" />
          </mxGeometry>
        </mxCell>
        <mxCell id="7PLjPzZpHCM-PqKwoNSJ-55" style="edgeStyle=elbowEdgeStyle;rounded=0;orthogonalLoop=1;jettySize=auto;html=1;" edge="1" parent="1" source="7PLjPzZpHCM-PqKwoNSJ-32" target="7PLjPzZpHCM-PqKwoNSJ-51">
          <mxGeometry relative="1" as="geometry">
            <Array as="points">
              <mxPoint x="260" y="790" />
            </Array>
            <mxPoint x="270" y="660" as="sourcePoint" />
            <mxPoint x="290" y="685" as="targetPoint" />
          </mxGeometry>
        </mxCell>
      </root>
    </mxGraphModel>
  </diagram>
</mxfile>
